<svg height="512pt" viewBox="0 0 512 512" width="512pt" xmlns="http://www.w3.org/2000/svg"><path d="m512 256c0 141.386719-114.613281 256-256 256s-256-114.613281-256-256 114.613281-256 256-256 256 114.613281 256 256zm0 0" fill="#2864f0"/><path d="m512 256c0-17.503906-1.761719-34.59375-5.109375-51.109375l-123.390625-123.390625-255 349 76.390625 76.390625c16.515625 3.347656 33.605469 5.109375 51.109375 5.109375 141.386719 0 256-114.613281 256-256zm0 0" fill="#27488f"/><path d="m128.5 81.5h255v349h-255zm0 0" fill="#fff"/><path d="m255.808594 81.5h127.691406v349h-127.691406zm0 0" fill="#e9edf5"/><path d="m326.207031 179.792969c0 38.773437-31.433593 70.207031-70.207031 70.207031s-70.207031-31.433594-70.207031-70.207031c0-38.773438 31.433593-70.207031 70.207031-70.207031s70.207031 31.433593 70.207031 70.207031zm0 0" fill="#fa5d0f"/><path d="m256 109.585938c-.0625 0-.128906.003906-.191406.003906v140.40625c.066406 0 .128906.003906.191406.003906 38.773438 0 70.207031-31.433594 70.207031-70.207031 0-38.773438-31.433593-70.207031-70.207031-70.207031zm0 0" fill="#f24500"/><path d="m240.636719 224.015625-38.832031-38.832031 18.890624-18.890625 19.941407 19.941406 50.667969-50.664063 18.890624 18.890626zm0 0" fill="#fff"/><path d="m255.808594 171.0625v37.785156l54.386718-54.386718-18.890624-18.890626zm0 0" fill="#e6e6e6"/><path d="m152 281h208v20h-208zm0 0" fill="#a7ddfa"/><path d="m255.808594 281h104.191406v20h-104.191406zm0 0" fill="#99d3f2"/><path d="m152 326h208v20h-208zm0 0" fill="#a7ddfa"/><path d="m255.808594 326h104.191406v20h-104.191406zm0 0" fill="#99d3f2"/><path d="m152 371h208v20h-208zm0 0" fill="#a7ddfa"/><path d="m255.808594 371h104.191406v20h-104.191406zm0 0" fill="#99d3f2"/></svg>