<?xml version="1.0" encoding="UTF-8" standalone="no"?>
<!-- Created with Inkscape (http://www.inkscape.org/) -->

<svg
   xmlns:dc="http://purl.org/dc/elements/1.1/"
   xmlns:cc="http://creativecommons.org/ns#"
   xmlns:rdf="http://www.w3.org/1999/02/22-rdf-syntax-ns#"
   xmlns:svg="http://www.w3.org/2000/svg"
   xmlns="http://www.w3.org/2000/svg"
   xmlns:sodipodi="http://sodipodi.sourceforge.net/DTD/sodipodi-0.dtd"
   xmlns:inkscape="http://www.inkscape.org/namespaces/inkscape"
   width="264.58334mm"
   height="264.58334mm"
   viewBox="0 0 264.58334 264.58334"
   version="1.1"
   id="svg8"
   sodipodi:docname="team-all-parts.svg"
   inkscape:version="0.92.4 (5da689c313, 2019-01-14)">
  <defs
     id="defs2" />
  <sodipodi:namedview
     id="base"
     pagecolor="#ffffff"
     bordercolor="#666666"
     borderopacity="1.0"
     inkscape:pageopacity="0.0"
     inkscape:pageshadow="2"
     inkscape:zoom="0.51326201"
     inkscape:cx="577.93083"
     inkscape:cy="548.10321"
     inkscape:document-units="mm"
     inkscape:current-layer="layer1"
     showgrid="false"
     showguides="true"
     inkscape:window-width="1366"
     inkscape:window-height="745"
     inkscape:window-x="-8"
     inkscape:window-y="-8"
     inkscape:window-maximized="1">
    <inkscape:grid
       type="xygrid"
       id="grid850" />
  </sodipodi:namedview>
  <metadata
     id="metadata5">
    <rdf:RDF>
      <cc:Work
         rdf:about="">
        <dc:format>image/svg+xml</dc:format>
        <dc:type
           rdf:resource="http://purl.org/dc/dcmitype/StillImage" />
        <dc:title></dc:title>
      </cc:Work>
    </rdf:RDF>
  </metadata>
  <g
     inkscape:label="Capa 1"
     inkscape:groupmode="layer"
     id="layer1"
     transform="translate(-15.501633,-70.355446)">
    <path
       style="fill:#ffffff;fill-opacity:1;stroke-width:0.95960492"
       d="M 515 25.53125 L 515 125.75 A 375 375 0 0 1 875 500 A 375 375 0 0 1 515 874.46875 L 515 974.25 A 475.00002 475.00002 0 0 0 975 500 A 475.00002 475.00002 0 0 0 515 25.53125 z "
       transform="matrix(0.26458333,0,0,0.26458333,15.501633,70.355446)"
       id="path4568"
       inkscape:export-filename="C:\Users\narut\Pictures\JustThink\icons\png\team.png"
       inkscape:export-xdpi="96"
       inkscape:export-ydpi="96" />
    <path
       style="fill:#ffffff;fill-opacity:1;stroke-width:0.95960492"
       d="M 25.740234 515 A 475 475 0 0 0 485 974.78125 L 485 874.25 A 375 375 0 0 1 125.49414 515 L 25.740234 515 z "
       transform="matrix(0.26458333,0,0,0.26458333,15.501633,70.355446)"
       id="path4568-1"
       inkscape:export-filename="C:\Users\narut\Pictures\JustThink\icons\png\team.png"
       inkscape:export-xdpi="96"
       inkscape:export-ydpi="96" />
    <path
       style="fill:#ffffff;fill-opacity:1;stroke-width:0.95960492"
       d="M 484.99805 25.21875 A 475.00003 475.00003 0 0 0 25.738281 485 L 125.49414 485 A 375 375 0 0 1 484.99805 125.75 L 484.99805 25.21875 z "
       transform="matrix(0.26458333,0,0,0.26458333,15.501633,70.355446)"
       id="path4568-1-6"
       inkscape:export-filename="C:\Users\narut\Pictures\JustThink\icons\png\team.png"
       inkscape:export-xdpi="96"
       inkscape:export-ydpi="96" />
    <circle
       style="fill:#ffffff;fill-opacity:1;stroke-width:0.2798028"
       id="path4627"
       cx="147.7933"
       cy="202.64713"
       inkscape:export-filename="C:\Users\narut\Pictures\JustThink\icons\png\team.png"
       inkscape:export-xdpi="96"
       inkscape:export-ydpi="96"
       r="66.145836" />
  </g>
</svg>
